<?xml version="1.0" encoding="UTF-8"?>
<svg id="Layer_1" xmlns="http://www.w3.org/2000/svg" version="1.1" viewBox="270 164 400 700">
  <!-- Generator: Adobe Illustrator 29.8.2, SVG Export Plug-In . SVG Version: 2.1.1 Build 3)  -->
  <defs>
    <style>
      .st0 {
        fill: #a67c52;
      }

      .st1 {
        fill: #fff;
      }

      .st1, .st2, .st3 {
        stroke: #000;
        stroke-miterlimit: 10;
        stroke-width: 3px;
      }

      .st4 {
        fill: #8c6239;
      }

      .st3 {
        fill: none;
      }
    </style>
  </defs>
  <path class="st1" d="M331.56,272.07c-.36-4.98-2.21-60.21,22.52-82.89,27.16-24.91,71.77-23.2,98.75,0,26.52,22.81,25.22,57.13,25,61.25-2.1,38.78-36.2,60.92-53.75,72.5-14.85,9.8-48.91,32.28-89.78,21.5-27.11-7.15-43.78-25.39-50.65-33.97,7.93-4.59,12.89-8.59,28.08-19.08,13.41-9.26,14.44-12.06,19.84-19.31Z"/>
  <path class="st3" d="M283.64,310.47c10.32,1.07,32.09,1.88,56.02-8.94,33-14.93,51.8-15.52,56.17-24.16-8.95,3.51-22.43-1.11-36.65-2.76-7.71-.9-21.52-2.03-27.61-2.54"/>
  <path class="st2" d="M406.03,229.21c-.98,5.79-2.79,14.19-4.12,22.85s-3.96,19.55-6.08,25.3c-6.86,1.96-19.18.3-32.99-1.24-10.79-1.2-25.5-2.4-31.31-5.05-.17-6.45.4-23.84,1.45-30.7s.79-9.91,2.71-15.03c7.08-.28,22.35-1.3,30.39-.98,10.66.42,31.01,3.57,39.95,4.85Z"/>
  <path class="st1" d="M353.19,240.35c4.74-.41,9.18,5.57,9.43,11.01.29,6.1-4.65,12.69-9.43,12.32-4.66-.36-8.05-7.24-7.6-12.84.35-4.36,3.2-10.1,7.6-10.48Z"/>
  <path class="st1" d="M378.28,241.62c4.19.06,7.72,5.66,8.12,10.5.48,5.84-3.41,12.79-8.12,12.86-4.25.06-7.99-5.51-8.43-10.42-.54-6.02,3.71-13,8.43-12.94Z"/>
  <path class="st1" d="M411.36,186.99c13.4-.52,23.47,2.37,30.35,5.31,31.6,13.54,50.99,51.96,51.6,97.5,3.42-7.3,8.72-18.93,8.73-33.76.01-21.39-11.33-49.07-34.58-69.63-19.31-17.08-53-14.49-64.42-15.27"/>
  <path class="st1" d="M426.88,779.7c4.95-2.97,10.47-4.97,16.17-5.86,6.62-1.03,13.95-.36,19.07,3.95,6.47,5.45,7.57,14.82,8.22,23.25.25,3.31.49,6.76-.76,9.84-1.66,4.11-5.6,6.77-9.38,9.07-6.53,3.97-13.38,7.69-20.87,9.18-9,1.8-19.12.5-26.63,5.78-2.55,1.79-4.86,4.35-7.96,4.63-1.37.12-2.73-.23-4.05-.63-8.05-2.41-16.43-7.48-18.07-15.72-1.3-6.54,2.09-13.12,6.21-18.37,10.48-13.36,24.32-16.9,38.05-25.14Z"/>
  <path class="st1" d="M531.42,768.84c2.85-.16,5.88-.05,8.3,1.46,3.12,1.95,4.5,5.71,5.54,9.24,4.95,16.79,6.81,34.47,5.48,51.92-.51,6.64-1.91,13.99-7.32,17.87-2.3,1.64-5.08,2.46-7.86,2.96-8.85,1.62-18.97-.05-24.85-6.86-2.89-3.35-4.5-7.6-6-11.77-5.1-14.13-11.74-32.3-7.62-47.5,3.1-11.45,24.02-16.73,34.32-17.32Z"/>
  <path class="st1" d="M376.43,561.12c.38,3.25.8,6.61,2.47,9.43.68,1.15,1.56,2.17,2.39,3.21,2.13,2.66,4.03,5.5,5.68,8.49-.67-3.98-1.34-7.95-2.01-11.93-.58-3.43-.91-6.5-.59-9.96,4.76-50.74,9.53-101.55,18.85-151.65,1.72-9.22,3.59-18.58,2.62-27.9-.45-4.27-2.09-9.15-6.18-10.45-3.17-1.01-6.63.64-9.05,2.91-4.9,4.6-6.92,11.42-8.62,17.92-13.15,50.2-19.83,102.08-19.83,153.98,0,3.18-1.32,5.3-2.45,8.28-2.23,5.88-1.68,12.42-.79,18.64,1.4,9.77,3.59,19.43,6.53,28.85.35-11.32.71-22.64,1.06-33.96,1.89,9.6,3.78,19.21,6.53,28.59.06-11.65.48-23.17,3.38-34.45Z"/>
  <path class="st1" d="M461.66,543.1c8.38-3.76,19.13-4.26,25.96,1.89,5.85,5.27,7.26,13.78,8.08,21.61,4.06,38.72,1.84,79.72-17.39,113.57-5.27,9.28-11.93,18.04-20.9,23.81-5.6,3.6-11.92,5.92-18.26,7.94-22.71,7.25-46.51,11.09-70.35,11.35-16.66.18-33.75-1.32-49.61,3.78-8.87,2.85-17.95,8.95-19.25,18.18-.96,6.79,2.67,13.52,7.52,18.37,8.16,8.16,20.14,12.33,31.6,11.01s22.18-8.1,28.28-17.9c-1.28,10.94-10.89,18.9-20.47,24.34-10.83,6.15-22.92,10.73-35.38,10.62s-25.3-5.51-32.19-15.89c-8.96-13.49-6.03-31.94,1.64-46.2,2.4-4.46,5.28-8.76,9.17-12,4.66-3.86,10.5-5.98,16.32-7.62,29.52-8.28,61.71-5.86,90.06-17.55,22.99-9.49,41.99-28.26,51.75-51.13,7.74-18.12,9.67-38.78,5.51-58.04-3.55-16.45-14.17-30.23,7.91-40.14Z"/>
  <path class="st1" d="M466.04,334.6c-7.34,3.53-17.83,7.61-30.93,9.77-15.27,2.51-28.18,1.43-36.9,0-6.66,27.2-9.98,50.2-11.77,66.74-2.43,22.42-13.84,127.68,16.58,186.65,2.26,4.39,8.7,16.16,13.09,33.39,5.56,21.79,4.54,39.32,4.05,48.57-1.6,30.05-2.8,69.07-4.31,117.17,3.35,2.16,9.66,5.58,18.28,6.53,12.46,1.38,21.94-3.27,25.46-5.22-.24-36.19.69-74.8,3.26-115.54,2.54-40.17,6.4-78.09,11.1-113.52,7.83,33.4,14.92,70.49,20.24,110.91,5.34,40.63,8.08,78.49,9.14,112.93,1.7,1.61,7.5,6.69,16.32,7.18,13.16.73,21.39-9.42,22.19-10.44-.31-39.84-3.74-36.89-3.57-71.12.07-14.38,1-44.56.56-68.67-.56-30.96-.57-50.58-5.63-80.79-5.55-33.13,8.63-59.36-67.17-234.53Z"/>
  <path class="st3" d="M394.12,836.12c.44-3.48-.08-7.01-.11-10.52s.51-7.23,2.73-9.95c1.87-2.31,4.69-3.6,7.41-4.82"/>
  <path class="st3" d="M406.64,838.57c-.78-6.47-1.34-13.74,2.76-18.81,1.24-1.53,2.83-2.74,4.44-3.88"/>
  <path class="st3" d="M519.15,850.06l.57-11.94c.15-3.18.22-6.65-1.7-9.2"/>
  <path class="st3" d="M538.04,851.37c.96-7.19.54-14.57-1.24-21.61"/>
  <polygon class="st0" points="541.84 436.9 785.28 321.81 785.28 530.2 541.84 436.9"/>
  <polygon class="st4" points="541.84 436.9 551.16 764.52 779.06 850.06 785.28 530.2 541.84 436.9"/>
  <path class="st1" d="M550.77,504.52c-.12,9,1.64,18.03,5.14,26.32.35-8.45-.53-17.16,4.11-24.23,7.74-11.78,22.08-16.88,34.71-23.13,17.85-8.83,33.7-21.13,49.43-33.34,5.44-4.23,11.2-8.92,13.04-15.56,2.01-7.28-1.42-15.22-6.88-20.43-6.43-6.14-14.96-9.25-23.84-8.8-50.39,2.55-100.31-10.19-148.2-26.08-6.34-2.1-15.12-3.33-18.05,2.67-.94,1.92-.94,4.14-.92,6.28.04,5.46.12,11.08,2.3,16.09,4.16,9.56,14.81,14.41,24.86,17.16,10.1,2.76,20.5,4.24,30.87,5.72,31.95,4.56,64.22,9.13,96.4,6.55-26.29,17.18-52.68,34.43-76.3,55.13-4.17.7-8.22,2.03-12.07,3.78s-7.35,4.67-8.86,8.62c-.86,2.24-1.04,4.67-1.2,7.07-.82,11.62-1.61,23.46,1.06,34.8,3.53-8.32,5.83-17.16,6.78-26.15.19,8.25.81,16.49,1.86,24.67,3.13-8.81,6.63-17.49,10.51-25.99.82,8.45,1.65,16.9,2.47,25.34,1-4.52,2.01-9.04,3.01-13.55.62-2.8,1.25-5.61,2.22-8.32,1.74-4.86,4.78-10.27,7.56-14.62Z"/>
</svg>